<?xml version="1.0" standalone="no"?>
<!DOCTYPE svg PUBLIC "-//W3C//DTD SVG 1.1//EN" "http://www.w3.org/Graphics/SVG/1.1/DTD/svg11.dtd" >
<svg xmlns="http://www.w3.org/2000/svg">
<metadata>Generated by IcoMoon</metadata>
<defs>
<font id="icomoon" horiz-adv-x="1024">
<font-face units-per-em="1024" ascent="960" descent="-64" />
<missing-glyph horiz-adv-x="1024" />
<glyph unicode="&#x20;" horiz-adv-x="512" d="" />
<glyph unicode="&#xe900;" glyph-name="file" d="M658.286 667.429v269.714q12.571-8 20.571-16l233.143-233.143q8-8 16-20.571h-269.714zM585.143 649.143q0-22.857 16-38.857t38.857-16h310.857v-603.429q0-22.857-16-38.857t-38.857-16h-768q-22.857 0-38.857 16t-16 38.857v914.286q0 22.857 16 38.857t38.857 16h457.143v-310.857z" />
<glyph unicode="&#xe901;" glyph-name="file-archive-o" d="M438.857 740.571v73.143h-73.143v-73.143h73.143zM512 667.429v73.143h-73.143v-73.143h73.143zM438.857 594.286v73.143h-73.143v-73.143h73.143zM512 521.143v73.143h-73.143v-73.143h73.143zM912 742.857q16-16 27.429-43.429t11.429-50.286v-658.286q0-22.857-16-38.857t-38.857-16h-768q-22.857 0-38.857 16t-16 38.857v914.286q0 22.857 16 38.857t38.857 16h512q22.857 0 50.286-11.429t43.429-27.429zM658.286 882.286v-214.857h214.857q-5.714 16.571-12.571 23.429l-178.857 178.857q-6.857 6.857-23.429 12.571zM877.714 9.143v585.143h-237.714q-22.857 0-38.857 16t-16 38.857v237.714h-73.143v-73.143h-73.143v73.143h-292.571v-877.714h731.429zM519.429 421.143l61.143-199.429q4.571-15.429 4.571-29.714 0-47.429-41.429-78.571t-104.857-31.143-104.857 31.143-41.429 78.571q0 14.286 4.571 29.714 12 36 68.571 226.286v73.143h73.143v-73.143h45.143q12.571 0 22.286-7.429t13.143-19.429zM438.857 155.429q30.286 0 51.714 10.857t21.429 25.714-21.429 25.714-51.714 10.857-51.714-10.857-21.429-25.714 21.429-25.714 51.714-10.857z" />
<glyph unicode="&#xe902;" glyph-name="file-audio-o" d="M912 742.857q16-16 27.429-43.429t11.429-50.286v-658.286q0-22.857-16-38.857t-38.857-16h-768q-22.857 0-38.857 16t-16 38.857v914.286q0 22.857 16 38.857t38.857 16h512q22.857 0 50.286-11.429t43.429-27.429zM658.286 882.286v-214.857h214.857q-5.714 16.571-12.571 23.429l-178.857 178.857q-6.857 6.857-23.429 12.571zM877.714 9.143v585.143h-237.714q-22.857 0-38.857 16t-16 38.857v237.714h-438.857v-877.714h731.429zM427.429 474.286q11.429-4.571 11.429-17.143v-310.857q0-12.571-11.429-17.143-4.571-1.143-6.857-1.143-6.857 0-13.143 5.143l-94.857 95.429h-74.857q-8 0-13.143 5.143t-5.143 13.143v109.714q0 8 5.143 13.143t13.143 5.143h74.857l94.857 95.429q9.143 8.571 20 4zM665.714 80.571q17.714 0 28.571 13.714 73.714 90.857 73.714 207.429t-73.714 207.429q-9.143 12-24.571 13.714t-26.857-8q-12-9.714-13.429-24.857t8.286-27.143q57.143-70.286 57.143-161.143t-57.143-161.143q-9.714-12-8.286-27.143t13.429-24.286q10.286-8.571 22.857-8.571zM545.143 165.143q15.429 0 26.857 11.429 49.714 53.143 49.714 125.143t-49.714 125.143q-10.286 10.857-25.714 11.429t-26.286-9.714-11.429-25.429 10.286-26.571q29.714-32.571 29.714-74.857t-29.714-74.857q-10.857-11.429-10.286-26.571t11.429-25.429q11.429-9.714 25.143-9.714z" />
<glyph unicode="&#xe903;" glyph-name="file-code-o" d="M912 742.857q16-16 27.429-43.429t11.429-50.286v-658.286q0-22.857-16-38.857t-38.857-16h-768q-22.857 0-38.857 16t-16 38.857v914.286q0 22.857 16 38.857t38.857 16h512q22.857 0 50.286-11.429t43.429-27.429zM658.286 882.286v-214.857h214.857q-5.714 16.571-12.571 23.429l-178.857 178.857q-6.857 6.857-23.429 12.571zM877.714 9.143v585.143h-237.714q-22.857 0-38.857 16t-16 38.857v237.714h-438.857v-877.714h731.429zM347.429 521.143q4.571 6.286 12 7.143t13.714-3.714l29.143-21.714q6.286-4.571 7.143-12t-3.714-13.714l-104-138.857 104-138.857q4.571-6.286 3.714-13.714t-7.143-12l-29.143-21.714q-6.286-4.571-13.714-3.714t-12 7.143l-129.143 172q-8 10.857 0 21.714zM805.714 349.143q8-10.857 0-21.714l-129.143-172q-4.571-6.286-12-7.143t-13.714 3.714l-29.143 21.714q-6.286 4.571-7.143 12t3.714 13.714l104 138.857-104 138.857q-4.571 6.286-3.714 13.714t7.143 12l29.143 21.714q6.286 4.571 13.714 3.714t12-7.143zM451.429 85.714q-7.429 1.143-11.714 7.429t-3.143 13.714l78.857 474.857q1.143 7.429 7.429 11.714t13.714 3.143l36-5.714q7.429-1.143 11.714-7.429t3.143-13.714l-78.857-474.857q-1.143-7.429-7.429-11.714t-13.714-3.143z" />
<glyph unicode="&#xe904;" glyph-name="file-excel-o" d="M912 742.857q16-16 27.429-43.429t11.429-50.286v-658.286q0-22.857-16-38.857t-38.857-16h-768q-22.857 0-38.857 16t-16 38.857v914.286q0 22.857 16 38.857t38.857 16h512q22.857 0 50.286-11.429t43.429-27.429zM658.286 882.286v-214.857h214.857q-5.714 16.571-12.571 23.429l-178.857 178.857q-6.857 6.857-23.429 12.571zM877.714 9.143v585.143h-237.714q-22.857 0-38.857 16t-16 38.857v237.714h-438.857v-877.714h731.429zM318.286 142.857v-60.571h160.571v60.571h-42.857l58.857 92q2.857 4 5.714 9.429t4.286 7.714 2 2.286h1.143q0.571-2.286 2.857-5.714 1.143-2.286 2.571-4.286t3.429-4.571 3.714-4.857l61.143-92h-43.429v-60.571h166.286v60.571h-38.857l-109.714 156 111.429 161.143h38.286v61.143h-159.429v-61.143h42.286l-58.857-90.857q-2.286-4-5.714-9.429t-5.143-7.714l-1.143-1.714h-1.143q-0.571 2.286-2.857 5.714-3.429 6.286-9.714 13.143l-60.571 90.857h43.429v61.143h-165.714v-61.143h38.857l108-155.429-110.857-161.714h-38.857z" />
<glyph unicode="&#xe905;" glyph-name="file-image-o" d="M912 742.857q16-16 27.429-43.429t11.429-50.286v-658.286q0-22.857-16-38.857t-38.857-16h-768q-22.857 0-38.857 16t-16 38.857v914.286q0 22.857 16 38.857t38.857 16h512q22.857 0 50.286-11.429t43.429-27.429zM658.286 882.286v-214.857h214.857q-5.714 16.571-12.571 23.429l-178.857 178.857q-6.857 6.857-23.429 12.571zM877.714 9.143v585.143h-237.714q-22.857 0-38.857 16t-16 38.857v237.714h-438.857v-877.714h731.429zM804.571 265.143v-182.857h-585.143v109.714l109.714 109.714 73.143-73.143 219.429 219.429zM329.143 374.857q-45.714 0-77.714 32t-32 77.714 32 77.714 77.714 32 77.714-32 32-77.714-32-77.714-77.714-32z" />
<glyph unicode="&#xe906;" glyph-name="file-movie-o" d="M912 742.857q16-16 27.429-43.429t11.429-50.286v-658.286q0-22.857-16-38.857t-38.857-16h-768q-22.857 0-38.857 16t-16 38.857v914.286q0 22.857 16 38.857t38.857 16h512q22.857 0 50.286-11.429t43.429-27.429zM658.286 882.286v-214.857h214.857q-5.714 16.571-12.571 23.429l-178.857 178.857q-6.857 6.857-23.429 12.571zM877.714 9.143v585.143h-237.714q-22.857 0-38.857 16t-16 38.857v237.714h-438.857v-877.714h731.429zM512 521.143q29.714 0 51.429-21.714t21.714-51.429v-219.429q0-29.714-21.714-51.429t-51.429-21.714h-219.429q-29.714 0-51.429 21.714t-21.714 51.429v219.429q0 29.714 21.714 51.429t51.429 21.714h219.429zM793.143 520q11.429-4.571 11.429-17.143v-329.143q0-12.571-11.429-17.143-4.571-1.143-6.857-1.143-8 0-13.143 5.143l-151.429 152v51.429l151.429 152q5.143 5.143 13.143 5.143 2.286 0 6.857-1.143z" />
<glyph unicode="&#xe907;" glyph-name="file-o" d="M912 742.857q16-16 27.429-43.429t11.429-50.286v-658.286q0-22.857-16-38.857t-38.857-16h-768q-22.857 0-38.857 16t-16 38.857v914.286q0 22.857 16 38.857t38.857 16h512q22.857 0 50.286-11.429t43.429-27.429zM658.286 882.286v-214.857h214.857q-5.714 16.571-12.571 23.429l-178.857 178.857q-6.857 6.857-23.429 12.571zM877.714 9.143v585.143h-237.714q-22.857 0-38.857 16t-16 38.857v237.714h-438.857v-877.714h731.429z" />
<glyph unicode="&#xe908;" glyph-name="file-pdf-o" d="M912 742.857q16-16 27.429-43.429t11.429-50.286v-658.286q0-22.857-16-38.857t-38.857-16h-768q-22.857 0-38.857 16t-16 38.857v914.286q0 22.857 16 38.857t38.857 16h512q22.857 0 50.286-11.429t43.429-27.429zM658.286 882.286v-214.857h214.857q-5.714 16.571-12.571 23.429l-178.857 178.857q-6.857 6.857-23.429 12.571zM877.714 9.143v585.143h-237.714q-22.857 0-38.857 16t-16 38.857v237.714h-438.857v-877.714h731.429zM584 348q18.857-14.857 48-32 33.714 4 66.857 4 84 0 101.143-28 9.143-12.571 1.143-29.714 0-0.571-0.571-1.143l-1.143-1.143v-0.571q-3.429-21.714-40.571-21.714-27.429 0-65.714 11.429t-74.286 30.286q-126.286-13.714-224-47.429-87.429-149.714-138.286-149.714-8.571 0-16 4l-13.714 6.857q-0.571 0.571-3.429 2.857-5.714 5.714-3.429 20.571 5.143 22.857 32 52.286t75.429 55.143q8 5.143 13.143-3.429 1.143-1.143 1.143-2.286 29.714 48.571 61.143 112.571 38.857 77.714 59.429 149.714-13.714 46.857-17.429 91.143t3.714 72.857q6.286 22.857 24 22.857h12.571q13.143 0 20-8.571 10.286-12 5.143-38.857-1.143-3.429-2.286-4.571 0.571-1.714 0.571-4.571v-17.143q-1.143-70.286-8-109.714 31.429-93.714 83.429-136zM254.857 113.143q29.714 13.714 78.286 90.286-29.143-22.857-50-48t-28.286-42.286zM482.286 638.857q-8.571-24-1.143-75.429 0.571 4 4 25.143 0 1.714 4 24.571 0.571 2.286 2.286 4.571-0.571 0.571-0.571 1.143t-0.286 0.857-0.286 0.857q-0.571 12.571-7.429 20.571 0-0.571-0.571-1.143v-1.143zM411.429 261.143q77.143 30.857 162.286 46.286-1.143 0.571-7.429 5.429t-9.143 7.714q-43.429 38.286-72.571 100.571-15.429-49.143-47.429-112.571-17.143-32-25.714-47.429zM780.571 270.286q-13.714 13.714-80 13.714 43.429-16 70.857-16 8 0 10.286 0.571 0 0.571-1.143 1.714z" />
<glyph unicode="&#xe909;" glyph-name="file-photo-o" d="M912 742.857q16-16 27.429-43.429t11.429-50.286v-658.286q0-22.857-16-38.857t-38.857-16h-768q-22.857 0-38.857 16t-16 38.857v914.286q0 22.857 16 38.857t38.857 16h512q22.857 0 50.286-11.429t43.429-27.429zM658.286 882.286v-214.857h214.857q-5.714 16.571-12.571 23.429l-178.857 178.857q-6.857 6.857-23.429 12.571zM877.714 9.143v585.143h-237.714q-22.857 0-38.857 16t-16 38.857v237.714h-438.857v-877.714h731.429zM804.571 265.143v-182.857h-585.143v109.714l109.714 109.714 73.143-73.143 219.429 219.429zM329.143 374.857q-45.714 0-77.714 32t-32 77.714 32 77.714 77.714 32 77.714-32 32-77.714-32-77.714-77.714-32z" />
<glyph unicode="&#xe90a;" glyph-name="file-picture-o" d="M912 742.857q16-16 27.429-43.429t11.429-50.286v-658.286q0-22.857-16-38.857t-38.857-16h-768q-22.857 0-38.857 16t-16 38.857v914.286q0 22.857 16 38.857t38.857 16h512q22.857 0 50.286-11.429t43.429-27.429zM658.286 882.286v-214.857h214.857q-5.714 16.571-12.571 23.429l-178.857 178.857q-6.857 6.857-23.429 12.571zM877.714 9.143v585.143h-237.714q-22.857 0-38.857 16t-16 38.857v237.714h-438.857v-877.714h731.429zM804.571 265.143v-182.857h-585.143v109.714l109.714 109.714 73.143-73.143 219.429 219.429zM329.143 374.857q-45.714 0-77.714 32t-32 77.714 32 77.714 77.714 32 77.714-32 32-77.714-32-77.714-77.714-32z" />
<glyph unicode="&#xe90b;" glyph-name="file-powerpoint-o" d="M912 742.857q16-16 27.429-43.429t11.429-50.286v-658.286q0-22.857-16-38.857t-38.857-16h-768q-22.857 0-38.857 16t-16 38.857v914.286q0 22.857 16 38.857t38.857 16h512q22.857 0 50.286-11.429t43.429-27.429zM658.286 882.286v-214.857h214.857q-5.714 16.571-12.571 23.429l-178.857 178.857q-6.857 6.857-23.429 12.571zM877.714 9.143v585.143h-237.714q-22.857 0-38.857 16t-16 38.857v237.714h-438.857v-877.714h731.429zM310.857 142.857v-60.571h186.857v60.571h-53.143v95.429h78.286q43.429 0 67.429 8.571 38.286 13.143 60.857 49.714t22.571 83.429q0 46.286-21.143 80.571t-57.143 49.714q-27.429 10.857-74.286 10.857h-210.286v-61.143h52.571v-317.143h-52.571zM512.571 302.857h-68v153.143h68.571q29.714 0 47.429-10.286 32-18.857 32-65.714 0-50.857-35.429-68.571-17.714-8.571-44.571-8.571z" />
<glyph unicode="&#xe90c;" glyph-name="files-o" d="M969.143 740.571q22.857 0 38.857-16t16-38.857v-694.857q0-22.857-16-38.857t-38.857-16h-548.571q-22.857 0-38.857 16t-16 38.857v164.571h-310.857q-22.857 0-38.857 16t-16 38.857v384q0 22.857 11.429 50.286t27.429 43.429l233.143 233.143q16 16 43.429 27.429t50.286 11.429h237.714q22.857 0 38.857-16t16-38.857v-187.429q38.857 22.857 73.143 22.857h237.714zM658.286 618.857l-170.857-170.857h170.857v170.857zM292.571 838.286l-170.857-170.857h170.857v170.857zM404.571 468.571l180.571 180.571v237.714h-219.429v-237.714q0-22.857-16-38.857t-38.857-16h-237.714v-365.714h292.571v146.286q0 22.857 11.429 50.286t27.429 43.429zM950.857 9.143v658.286h-219.429v-237.714q0-22.857-16-38.857t-38.857-16h-237.714v-365.714h512z" />
<glyph unicode="&#xe90d;" glyph-name="file-sound-o" d="M912 742.857q16-16 27.429-43.429t11.429-50.286v-658.286q0-22.857-16-38.857t-38.857-16h-768q-22.857 0-38.857 16t-16 38.857v914.286q0 22.857 16 38.857t38.857 16h512q22.857 0 50.286-11.429t43.429-27.429zM658.286 882.286v-214.857h214.857q-5.714 16.571-12.571 23.429l-178.857 178.857q-6.857 6.857-23.429 12.571zM877.714 9.143v585.143h-237.714q-22.857 0-38.857 16t-16 38.857v237.714h-438.857v-877.714h731.429zM427.429 474.286q11.429-4.571 11.429-17.143v-310.857q0-12.571-11.429-17.143-4.571-1.143-6.857-1.143-6.857 0-13.143 5.143l-94.857 95.429h-74.857q-8 0-13.143 5.143t-5.143 13.143v109.714q0 8 5.143 13.143t13.143 5.143h74.857l94.857 95.429q9.143 8.571 20 4zM665.714 80.571q17.714 0 28.571 13.714 73.714 90.857 73.714 207.429t-73.714 207.429q-9.143 12-24.571 13.714t-26.857-8q-12-9.714-13.429-24.857t8.286-27.143q57.143-70.286 57.143-161.143t-57.143-161.143q-9.714-12-8.286-27.143t13.429-24.286q10.286-8.571 22.857-8.571zM545.143 165.143q15.429 0 26.857 11.429 49.714 53.143 49.714 125.143t-49.714 125.143q-10.286 10.857-25.714 11.429t-26.286-9.714-11.429-25.429 10.286-26.571q29.714-32.571 29.714-74.857t-29.714-74.857q-10.857-11.429-10.286-26.571t11.429-25.429q11.429-9.714 25.143-9.714z" />
<glyph unicode="&#xe90e;" glyph-name="file-text" d="M912 688q8-8 16-20.571h-269.714v269.714q12.571-8 20.571-16zM640 594.286h310.857v-603.429q0-22.857-16-38.857t-38.857-16h-768q-22.857 0-38.857 16t-16 38.857v914.286q0 22.857 16 38.857t38.857 16h457.143v-310.857q0-22.857 16-38.857t38.857-16zM731.429 173.714v36.571q0 8-5.143 13.143t-13.143 5.143h-402.286q-8 0-13.143-5.143t-5.143-13.143v-36.571q0-8 5.143-13.143t13.143-5.143h402.286q8 0 13.143 5.143t5.143 13.143zM731.429 320v36.571q0 8-5.143 13.143t-13.143 5.143h-402.286q-8 0-13.143-5.143t-5.143-13.143v-36.571q0-8 5.143-13.143t13.143-5.143h402.286q8 0 13.143 5.143t5.143 13.143zM731.429 466.286v36.571q0 8-5.143 13.143t-13.143 5.143h-402.286q-8 0-13.143-5.143t-5.143-13.143v-36.571q0-8 5.143-13.143t13.143-5.143h402.286q8 0 13.143 5.143t5.143 13.143z" />
<glyph unicode="&#xe90f;" glyph-name="file-text-o" d="M912 742.857q16-16 27.429-43.429t11.429-50.286v-658.286q0-22.857-16-38.857t-38.857-16h-768q-22.857 0-38.857 16t-16 38.857v914.286q0 22.857 16 38.857t38.857 16h512q22.857 0 50.286-11.429t43.429-27.429zM658.286 882.286v-214.857h214.857q-5.714 16.571-12.571 23.429l-178.857 178.857q-6.857 6.857-23.429 12.571zM877.714 9.143v585.143h-237.714q-22.857 0-38.857 16t-16 38.857v237.714h-438.857v-877.714h731.429zM292.571 502.857q0 8 5.143 13.143t13.143 5.143h402.286q8 0 13.143-5.143t5.143-13.143v-36.571q0-8-5.143-13.143t-13.143-5.143h-402.286q-8 0-13.143 5.143t-5.143 13.143v36.571zM713.143 374.857q8 0 13.143-5.143t5.143-13.143v-36.571q0-8-5.143-13.143t-13.143-5.143h-402.286q-8 0-13.143 5.143t-5.143 13.143v36.571q0 8 5.143 13.143t13.143 5.143h402.286zM713.143 228.571q8 0 13.143-5.143t5.143-13.143v-36.571q0-8-5.143-13.143t-13.143-5.143h-402.286q-8 0-13.143 5.143t-5.143 13.143v36.571q0 8 5.143 13.143t13.143 5.143h402.286z" />
<glyph unicode="&#xe910;" glyph-name="file-video-o" d="M912 742.857q16-16 27.429-43.429t11.429-50.286v-658.286q0-22.857-16-38.857t-38.857-16h-768q-22.857 0-38.857 16t-16 38.857v914.286q0 22.857 16 38.857t38.857 16h512q22.857 0 50.286-11.429t43.429-27.429zM658.286 882.286v-214.857h214.857q-5.714 16.571-12.571 23.429l-178.857 178.857q-6.857 6.857-23.429 12.571zM877.714 9.143v585.143h-237.714q-22.857 0-38.857 16t-16 38.857v237.714h-438.857v-877.714h731.429zM512 521.143q29.714 0 51.429-21.714t21.714-51.429v-219.429q0-29.714-21.714-51.429t-51.429-21.714h-219.429q-29.714 0-51.429 21.714t-21.714 51.429v219.429q0 29.714 21.714 51.429t51.429 21.714h219.429zM793.143 520q11.429-4.571 11.429-17.143v-329.143q0-12.571-11.429-17.143-4.571-1.143-6.857-1.143-8 0-13.143 5.143l-151.429 152v51.429l151.429 152q5.143 5.143 13.143 5.143 2.286 0 6.857-1.143z" />
<glyph unicode="&#xe911;" glyph-name="file-word-o" d="M912 742.857q16-16 27.429-43.429t11.429-50.286v-658.286q0-22.857-16-38.857t-38.857-16h-768q-22.857 0-38.857 16t-16 38.857v914.286q0 22.857 16 38.857t38.857 16h512q22.857 0 50.286-11.429t43.429-27.429zM658.286 882.286v-214.857h214.857q-5.714 16.571-12.571 23.429l-178.857 178.857q-6.857 6.857-23.429 12.571zM877.714 9.143v585.143h-237.714q-22.857 0-38.857 16t-16 38.857v237.714h-438.857v-877.714h731.429zM206.286 521.143v-61.143h40l93.714-377.714h90.857l73.143 277.143q4 11.429 5.714 26.286 1.143 9.143 1.143 13.714h2.286l1.714-13.714q0.571-1.714 2-11.429t3.143-14.857l73.143-277.143h90.857l93.714 377.714h40v61.143h-171.429v-61.143h51.429l-56.571-250.286q-2.857-11.429-4-26.286l-1.143-12h-2.286l-1.714 12q-0.571 2.857-2.286 12t-2.857 14.286l-82.286 311.429h-65.143l-82.286-311.429q-1.143-5.143-2.571-14t-2-12.286l-2.286-12h-2.286l-1.143 12q-1.143 14.857-4 26.286l-56.571 250.286h51.429v61.143h-171.429z" />
<glyph unicode="&#xe912;" glyph-name="file-zip-o" d="M438.857 740.571v73.143h-73.143v-73.143h73.143zM512 667.429v73.143h-73.143v-73.143h73.143zM438.857 594.286v73.143h-73.143v-73.143h73.143zM512 521.143v73.143h-73.143v-73.143h73.143zM912 742.857q16-16 27.429-43.429t11.429-50.286v-658.286q0-22.857-16-38.857t-38.857-16h-768q-22.857 0-38.857 16t-16 38.857v914.286q0 22.857 16 38.857t38.857 16h512q22.857 0 50.286-11.429t43.429-27.429zM658.286 882.286v-214.857h214.857q-5.714 16.571-12.571 23.429l-178.857 178.857q-6.857 6.857-23.429 12.571zM877.714 9.143v585.143h-237.714q-22.857 0-38.857 16t-16 38.857v237.714h-73.143v-73.143h-73.143v73.143h-292.571v-877.714h731.429zM519.429 421.143l61.143-199.429q4.571-15.429 4.571-29.714 0-47.429-41.429-78.571t-104.857-31.143-104.857 31.143-41.429 78.571q0 14.286 4.571 29.714 12 36 68.571 226.286v73.143h73.143v-73.143h45.143q12.571 0 22.286-7.429t13.143-19.429zM438.857 155.429q30.286 0 51.714 10.857t21.429 25.714-21.429 25.714-51.714 10.857-51.714-10.857-21.429-25.714 21.429-25.714 51.714-10.857z" />
<glyph unicode="&#xe913;" glyph-name="folder" d="M987.429 612.571v-402.286q0-52.571-37.714-90.286t-90.286-37.714h-694.857q-52.571 0-90.286 37.714t-37.714 90.286v548.571q0 52.571 37.714 90.286t90.286 37.714h182.857q52.571 0 90.286-37.714t37.714-90.286v-18.286h384q52.571 0 90.286-37.714t37.714-90.286z" />
<glyph unicode="&#xe914;" glyph-name="folder-o" d="M914.286 210.286v402.286q0 22.857-16 38.857t-38.857 16h-402.286q-22.857 0-38.857 16t-16 38.857v36.571q0 22.857-16 38.857t-38.857 16h-182.857q-22.857 0-38.857-16t-16-38.857v-548.571q0-22.857 16-38.857t38.857-16h694.857q22.857 0 38.857 16t16 38.857zM987.429 612.571v-402.286q0-52.571-37.714-90.286t-90.286-37.714h-694.857q-52.571 0-90.286 37.714t-37.714 90.286v548.571q0 52.571 37.714 90.286t90.286 37.714h182.857q52.571 0 90.286-37.714t37.714-90.286v-18.286h384q52.571 0 90.286-37.714t37.714-90.286z" />
<glyph unicode="&#xe915;" glyph-name="folder-open" d="M1037.143 416q0-17.714-17.714-37.714l-192-226.286q-24.571-29.143-68.857-49.429t-82-20.286h-621.714q-19.429 0-34.571 7.429t-15.143 24.571q0 17.714 17.714 37.714l192 226.286q24.571 29.143 68.857 49.429t82 20.286h621.714q19.429 0 34.571-7.429t15.143-24.571zM841.143 612.571v-91.429h-475.429q-53.714 0-112.571-27.143t-93.714-68.286l-195.429-229.714q0 2.286-0.286 7.143t-0.286 7.143v548.571q0 52.571 37.714 90.286t90.286 37.714h182.857q52.571 0 90.286-37.714t37.714-90.286v-18.286h310.857q52.571 0 90.286-37.714t37.714-90.286z" />
<glyph unicode="&#xe916;" glyph-name="folder-open-o" d="M981.143 428q0 20-30.286 20h-621.714q-22.857 0-48.857-12.286t-40.857-30l-168-207.429q-10.286-13.714-10.286-22.857 0-20 30.286-20h621.714q22.857 0 49.143 12.571t40.571 30.286l168 207.429q10.286 12.571 10.286 22.286zM329.143 521.143h438.857v91.429q0 22.857-16 38.857t-38.857 16h-329.143q-22.857 0-38.857 16t-16 38.857v36.571q0 22.857-16 38.857t-38.857 16h-182.857q-22.857 0-38.857-16t-16-38.857v-487.429l146.286 180q25.143 30.286 66.286 50t80 19.714zM1054.286 428q0-35.429-26.286-68.571l-168.571-207.429q-24.571-30.286-66.286-50t-80-19.714h-621.714q-52.571 0-90.286 37.714t-37.714 90.286v548.571q0 52.571 37.714 90.286t90.286 37.714h182.857q52.571 0 90.286-37.714t37.714-90.286v-18.286h310.857q52.571 0 90.286-37.714t37.714-90.286v-91.429h109.714q30.857 0 56.571-14t38.286-40.286q8.571-18.286 8.571-38.857z" />
</font>
</defs>
</svg>
